<svg width="14" height="13" viewBox="0 0 14 13" fill="none" xmlns="http://www.w3.org/2000/svg">
<path d="M7 0.625C4.8125 0.625 2.84375 1.77344 1.75 3.63281V1.0625C1.75 0.84375 1.53125 0.625 1.3125 0.625C1.06641 0.625 0.875 0.84375 0.875 1.0625V4.5625C0.875 4.80859 1.06641 5 1.3125 5H4.8125C5.03125 5 5.25 4.80859 5.25 4.5625C5.25 4.34375 5.03125 4.125 4.8125 4.125H2.46094C3.39062 2.51172 5.11328 1.5 7 1.5C9.87109 1.5 12.25 3.87891 12.25 6.75C12.25 9.64844 9.87109 12 7 12C5.35938 12 3.85547 11.2891 2.84375 10.0039C2.70703 9.8125 2.43359 9.75781 2.24219 9.92188C2.05078 10.0586 2.02344 10.332 2.16016 10.5234C3.33594 12.0273 5.08594 12.875 7 12.875C10.3633 12.875 13.125 10.1406 13.125 6.75C13.125 3.38672 10.3633 0.625 7 0.625ZM7 3.25C6.75391 3.25 6.5625 3.46875 6.5625 3.6875V7.1875C6.5625 7.35156 6.61719 7.46094 6.72656 7.54297L8.47656 8.85547C8.55859 8.91016 8.64062 8.9375 8.72266 8.9375C8.83203 8.9375 8.96875 8.88281 9.05078 8.77344C9.21484 8.58203 9.16016 8.30859 8.96875 8.17188L7.4375 6.96875V3.6875C7.4375 3.46875 7.21875 3.25 7 3.25Z" fill="#2E3138"/>
</svg>
